<!--?xml version="1.0" encoding="utf-8"?-->
<!-- Generator: Adobe Illustrator 18.1.1, SVG Export Plug-In . SVG Version: 6.00 Build 0)  -->

<svg version="1.1" id="_x32_" xmlns="http://www.w3.org/2000/svg" xmlns:xlink="http://www.w3.org/1999/xlink" x="0px" y="0px" viewBox="0 0 512 512" style="width: 256px; height: 256px; opacity: 1;" xml:space="preserve">
<style type="text/css">
	.st0{fill:#4B4B4B;}
</style>
<g>
	<path class="st0" d="M380.568,17.007c1.667-0.71,2.84-2.251,3.07-4.052c0.234-1.793-0.511-3.585-1.944-4.685l-4.858-3.74
		c-6.204-4.798-14.512-5.871-21.729-2.806L315.688,18.47c0,0-2.615,14.962-15.733,20.53l4.394,10.347L380.568,17.007z" style="fill: rgb(58, 171, 210);"></path>
	<path class="st0" d="M135.162,125.579c6.204,4.78,14.508,5.854,21.725,2.789l39.424-16.73c0,0,2.615-14.979,15.737-20.538
		l-4.399-10.364l-76.219,32.358c-1.671,0.702-2.84,2.252-3.07,4.052c-0.225,1.793,0.511,3.584,1.944,4.685L135.162,125.579z" style="fill: rgb(58, 171, 210);"></path>
	<path class="st0" d="M129.611,357.391l-16.733-39.414c0,0-14.967-2.632-20.534-15.742l-10.36,4.398l32.353,76.214
		c0.706,1.68,2.243,2.832,4.048,3.065c1.788,0.243,3.58-0.502,4.689-1.939l3.749-4.858
		C131.607,372.908,132.672,364.613,129.611,357.391z" style="fill: rgb(58, 171, 210);"></path>
	<path class="st0" d="M50.604,209.933L18.246,133.71c-0.706-1.672-2.242-2.84-4.043-3.056c-1.801-0.243-3.589,0.502-4.693,1.939
		l-3.745,4.858c-4.784,6.208-5.853,14.503-2.792,21.725l16.733,39.414c0,0,14.967,2.615,20.534,15.733L50.604,209.933z" style="fill: rgb(58, 171, 210);"></path>
	<path class="st0" d="M377.871,386.432c-6.213-4.779-14.516-5.853-21.725-2.788l-39.424,16.729c0,0-2.619,14.962-15.737,20.538
		l4.399,10.356l76.219-32.35c1.662-0.709,2.835-2.251,3.065-4.052c0.234-1.792-0.515-3.585-1.939-4.693L377.871,386.432z" style="fill: rgb(58, 171, 210);"></path>
	<path class="st0" d="M132.46,495.004c-1.667,0.71-2.836,2.243-3.07,4.035c-0.23,1.81,0.515,3.594,1.944,4.693l4.862,3.75
		c6.208,4.797,14.508,5.853,21.72,2.788l39.428-16.728c0,0,2.61-14.962,15.728-20.53l-4.399-10.365L132.46,495.004z" style="fill: rgb(58, 171, 210);"></path>
	<path class="st0" d="M382.391,157.097l16.738,39.432c0,0,14.962,2.615,20.534,15.733l10.352-4.399l-32.35-76.205
		c-0.706-1.68-2.247-2.849-4.052-3.083c-1.793-0.225-3.58,0.52-4.689,1.957l-3.741,4.849
		C380.4,141.589,379.321,149.893,382.391,157.097z" style="fill: rgb(58, 171, 210);"></path>
	<path class="st0" d="M509.025,355.33l-16.733-39.432c0,0-14.971-2.607-20.534-15.725l-10.356,4.39l32.349,76.223
		c0.706,1.671,2.251,2.84,4.049,3.065c1.796,0.234,3.584-0.502,4.688-1.939l3.749-4.858
		C511.025,370.847,512.086,362.543,509.025,355.33z" style="fill: rgb(58, 171, 210);"></path>
	<path class="st0" d="M472.216,244.966c-5.896-13.898-21.95-20.392-35.856-14.495c-4.728,2.008-8.602,5.204-11.417,9.083
		c-38.051,8.113-93.796-12.53-116.252-34.999c-22.699-22.686-43.55-79.366-34.744-117.43c5.753-5.013,9.395-12.391,9.395-20.617
		c0-15.1-12.244-27.344-27.344-27.344s-27.344,12.244-27.344,27.344c0,8.226,3.64,15.604,9.395,20.617
		c8.806,38.064-12.044,94.744-34.735,117.43c-23.192,23.197-81.868,44.463-119.91,34.116c-4.36-3.983-9.906-6.45-15.746-7.031
		c-0.823-0.554-1.628-1.125-2.398-1.74v1.611c-3.667-0.043-7.404,0.64-10.997,2.173c-13.901,5.896-20.387,21.95-14.482,35.856
		c5.902,13.898,21.95,20.383,35.856,14.477c4.728-1.999,8.598-5.195,11.416-9.083c38.056-8.113,93.8,12.547,116.261,34.999
		c23.184,23.196,44.45,81.877,34.103,119.915c-3.97,4.364-6.442,9.897-7.031,15.742c-0.55,0.814-1.125,1.628-1.732,2.398h1.606
		c-0.043,3.663,0.64,7.404,2.164,10.988c5.905,13.906,21.959,20.392,35.856,14.494c13.906-5.896,20.388-21.949,14.491-35.864
		c-2.013-4.728-5.2-8.598-9.079-11.421c-8.117-38.038,12.534-93.782,34.99-116.252c23.192-23.188,81.868-44.446,119.919-34.107
		c4.351,3.983,9.897,6.442,15.742,7.031c0.818,0.554,1.619,1.125,2.389,1.732v-1.602c3.676,0.043,7.404-0.649,10.996-2.164
		C471.632,274.908,478.122,258.855,472.216,244.966z" style="fill: rgb(58, 171, 210);"></path>
</g>
</svg>
